<?xml version="1.0" encoding="utf-8"?>
<!-- Generator: Adobe Illustrator 27.6.1, SVG Export Plug-In . SVG Version: 6.00 Build 0)  -->
<svg version="1.1" id="Layer_1" xmlns="http://www.w3.org/2000/svg" xmlns:xlink="http://www.w3.org/1999/xlink" x="0px" y="0px"
	 viewBox="0 0 154 32" style="enable-background:new 0 0 154 32;" xml:space="preserve">
<style type="text/css">
	.st0{fill:#D03027;}
	.st1{fill:#FFFFFF;}
	.st2{fill:#FFFFFF;stroke:#000000;stroke-width:0.25;stroke-miterlimit:10;}
</style>
<path class="st0" d="M37,32H1c-0.5,0-1-0.4-1-1V1c0-0.5,0.4-1,1-1h36c0.5,0,1,0.4,1,1V31C37.9,31.6,37.5,32,37,32z"/>
<g>
	<path class="st1" d="M16.5,11.8V32h-2.7V11.8H16.5z"/>
	<path class="st1" d="M31.2,14.5c-0.9-0.7-2-1-3.4-1c-0.6,0-1.1,0.1-1.7,0.2c-0.5,0.1-1,0.3-1.5,0.6c-0.4,0.3-0.8,0.6-1,1.1
		c-0.3,0.4-0.4,1-0.4,1.7c0,0.6,0.2,1.1,0.6,1.5s0.9,0.7,1.5,1c0.6,0.2,1.3,0.4,2.1,0.6c0.8,0.2,1.6,0.3,2.4,0.5
		c0.8,0.2,1.6,0.4,2.4,0.7c0.8,0.3,1.5,0.6,2.1,1s1.1,1,1.5,1.6c0.4,0.7,0.6,1.5,0.6,2.5c0,1.1-0.2,2-0.7,2.8s-1.1,1.4-1.9,1.9
		c-0.8,0.5-1.6,0.8-2.5,1c-0.9,0.2-1.9,0.3-2.8,0.3c-1.1,0-2.2-0.1-3.2-0.4c-1-0.3-1.9-0.7-2.7-1.3c-0.8-0.6-1.4-1.3-1.8-2.2
		c-0.4-0.9-0.7-2-0.7-3.2h2.6c0,0.9,0.2,1.6,0.5,2.2c0.3,0.6,0.8,1.1,1.3,1.5c0.5,0.4,1.2,0.7,1.9,0.9c0.7,0.2,1.5,0.3,2.2,0.3
		c0.6,0,1.2-0.1,1.8-0.2c0.6-0.1,1.2-0.3,1.7-0.6c0.5-0.3,0.9-0.6,1.2-1.1c0.3-0.5,0.5-1.1,0.5-1.8c0-0.7-0.2-1.3-0.6-1.7
		c-0.4-0.4-0.9-0.8-1.5-1.1c-0.6-0.3-1.3-0.5-2.1-0.7s-1.6-0.3-2.4-0.5c-0.8-0.2-1.6-0.4-2.4-0.6c-0.8-0.2-1.5-0.5-2.1-0.9
		c-0.6-0.4-1.1-0.9-1.5-1.5c-0.4-0.6-0.6-1.4-0.6-2.3c0-1,0.2-1.9,0.6-2.7c0.4-0.7,1-1.4,1.7-1.8c0.7-0.5,1.5-0.8,2.4-1.1
		c0.9-0.2,1.8-0.4,2.7-0.4c1,0,2,0.1,2.9,0.4c0.9,0.2,1.7,0.6,2.3,1.2c0.7,0.5,1.2,1.2,1.6,2c0.4,0.8,0.6,1.8,0.6,2.9h-2.6
		C32.6,16.2,32.1,15.2,31.2,14.5z"/>
</g>
<g>
	<path class="st2" d="M51.7,10.6l5.1,13h-1.9l-1.4-3.9H48l-1.5,3.9h-1.8l5.1-13H51.7z M52.9,18.3l-2.2-6.1h0l-2.2,6.1H52.9z"/>
	<path class="st2" d="M64.7,23.7v-1.3h0c-0.3,0.5-0.7,0.9-1.2,1.1c-0.5,0.2-1.1,0.3-1.8,0.3c-0.7,0-1.4-0.1-1.9-0.4
		c-0.5-0.3-1-0.6-1.4-1.1c-0.4-0.5-0.6-1-0.8-1.6c-0.2-0.6-0.3-1.2-0.3-1.9s0.1-1.3,0.3-1.9c0.2-0.6,0.4-1.1,0.8-1.6
		c0.4-0.4,0.8-0.8,1.4-1.1c0.5-0.3,1.2-0.4,1.9-0.4c0.2,0,0.5,0,0.8,0.1c0.3,0,0.6,0.1,0.8,0.2s0.5,0.3,0.8,0.5
		c0.2,0.2,0.5,0.4,0.6,0.7h0v-4.9h1.6v13H64.7z M59.1,20.3c0.1,0.4,0.3,0.8,0.5,1.1c0.2,0.3,0.5,0.6,0.9,0.8
		c0.4,0.2,0.8,0.3,1.3,0.3c0.5,0,1-0.1,1.3-0.3c0.4-0.2,0.7-0.5,0.9-0.8c0.2-0.3,0.4-0.7,0.5-1.1s0.2-0.9,0.2-1.3
		c0-0.5-0.1-0.9-0.2-1.3s-0.3-0.8-0.5-1.1c-0.2-0.3-0.5-0.6-0.9-0.8c-0.4-0.2-0.8-0.3-1.4-0.3c-0.5,0-1,0.1-1.3,0.3
		c-0.4,0.2-0.7,0.5-0.9,0.8c-0.2,0.3-0.4,0.7-0.5,1.2C59,18.1,59,18.6,59,19C59,19.5,59,19.9,59.1,20.3z"/>
	<path class="st2" d="M70.1,14.2v1.4h0c0.7-1.1,1.7-1.6,3-1.6c0.6,0,1.1,0.1,1.6,0.4c0.5,0.2,0.8,0.7,1,1.2c0.3-0.5,0.7-0.9,1.2-1.2
		c0.5-0.3,1.1-0.4,1.7-0.4c0.5,0,0.9,0.1,1.3,0.2c0.4,0.1,0.7,0.3,1,0.5c0.3,0.2,0.5,0.5,0.6,0.8s0.2,0.8,0.2,1.2v6.9h-1.6v-6.2
		c0-0.3,0-0.6-0.1-0.8S80.1,16.2,80,16c-0.1-0.2-0.3-0.3-0.6-0.4c-0.2-0.1-0.5-0.2-0.9-0.2c-0.8,0-1.4,0.2-1.8,0.7
		c-0.4,0.4-0.7,1-0.7,1.8v5.9h-1.6v-6.2c0-0.3,0-0.6-0.1-0.8s-0.1-0.5-0.3-0.7s-0.3-0.3-0.5-0.4c-0.2-0.1-0.5-0.2-0.9-0.2
		c-0.5,0-0.8,0.1-1.2,0.3c-0.3,0.2-0.6,0.4-0.8,0.7s-0.3,0.5-0.4,0.8c-0.1,0.3-0.1,0.5-0.1,0.7v5.9h-1.6v-9.4H70.1z"/>
	<path class="st2" d="M84.3,12.5v-1.9h1.6v1.9H84.3z M85.9,14.2v9.4h-1.6v-9.4H85.9z"/>
	<path class="st2" d="M89.7,14.2v1.5h0c0.6-1.1,1.7-1.7,3.1-1.7c0.6,0,1.1,0.1,1.6,0.3c0.4,0.2,0.7,0.4,1,0.7
		c0.3,0.3,0.4,0.7,0.5,1.1c0.1,0.4,0.2,0.9,0.2,1.4v6.2h-1.6v-6.4c0-0.6-0.2-1-0.5-1.4c-0.3-0.3-0.8-0.5-1.4-0.5
		c-0.5,0-0.9,0.1-1.2,0.2s-0.6,0.4-0.9,0.6c-0.2,0.3-0.4,0.6-0.5,0.9c-0.1,0.4-0.2,0.8-0.2,1.2v5.3h-1.6v-9.4H89.7z"/>
	<path class="st2" d="M109.5,10.6c1.3,0,2.3,0.3,3,1c0.7,0.7,1,1.6,1,2.8c0,1.2-0.3,2.2-1,2.8c-0.7,0.7-1.7,1-3,1h-4v5.3h-1.7v-13
		H109.5z M108.9,16.9c1,0,1.7-0.2,2.2-0.6c0.5-0.4,0.7-1,0.7-1.8c0-0.8-0.2-1.4-0.7-1.8s-1.2-0.6-2.2-0.6h-3.4v4.8H108.9z"/>
	<path class="st2" d="M123.7,23.6c-0.3,0.2-0.6,0.2-1.1,0.2c-0.4,0-0.7-0.1-1-0.3s-0.4-0.6-0.4-1.1c-0.4,0.5-0.9,0.9-1.5,1.1
		c-0.6,0.2-1.2,0.3-1.8,0.3c-0.4,0-0.8,0-1.2-0.1c-0.4-0.1-0.7-0.2-1-0.5c-0.3-0.2-0.5-0.5-0.7-0.8c-0.2-0.3-0.2-0.7-0.2-1.2
		c0-0.5,0.1-1,0.3-1.3s0.4-0.6,0.7-0.8s0.6-0.4,1-0.5c0.4-0.1,0.8-0.2,1.2-0.3c0.4-0.1,0.8-0.1,1.2-0.2c0.4,0,0.7-0.1,1-0.2
		s0.5-0.2,0.7-0.3c0.2-0.2,0.3-0.4,0.3-0.7c0-0.3-0.1-0.6-0.2-0.8c-0.1-0.2-0.3-0.4-0.5-0.5c-0.2-0.1-0.4-0.2-0.7-0.2
		c-0.2,0-0.5-0.1-0.7-0.1c-0.7,0-1.2,0.1-1.6,0.4c-0.4,0.2-0.7,0.7-0.7,1.4h-1.6c0-0.6,0.1-1.1,0.4-1.5c0.2-0.4,0.5-0.7,0.9-1
		c0.4-0.2,0.8-0.4,1.2-0.5c0.5-0.1,1-0.2,1.5-0.2c0.4,0,0.8,0,1.3,0.1c0.4,0.1,0.8,0.2,1.1,0.4c0.3,0.2,0.6,0.5,0.8,0.8
		c0.2,0.3,0.3,0.8,0.3,1.3v4.8c0,0.4,0,0.6,0.1,0.8c0,0.2,0.2,0.3,0.4,0.3c0.1,0,0.3,0,0.5-0.1V23.6z M121.1,18.8
		c-0.2,0.1-0.5,0.3-0.8,0.3c-0.3,0.1-0.6,0.1-1,0.2c-0.3,0-0.7,0.1-1,0.1c-0.4,0.1-0.7,0.1-0.9,0.3c-0.3,0.1-0.5,0.3-0.7,0.5
		c-0.2,0.2-0.3,0.5-0.3,0.9c0,0.3,0.1,0.5,0.2,0.6s0.2,0.3,0.4,0.4c0.2,0.1,0.4,0.2,0.6,0.2s0.4,0.1,0.7,0.1c0.5,0,0.9-0.1,1.3-0.2
		c0.4-0.1,0.7-0.3,0.9-0.5c0.2-0.2,0.4-0.4,0.5-0.7s0.2-0.5,0.2-0.7V18.8z"/>
	<path class="st2" d="M126.6,14.2v1.5h0c0.6-1.1,1.7-1.7,3.1-1.7c0.6,0,1.1,0.1,1.6,0.3c0.4,0.2,0.7,0.4,1,0.7
		c0.3,0.3,0.4,0.7,0.5,1.1c0.1,0.4,0.2,0.9,0.2,1.4v6.2h-1.6v-6.4c0-0.6-0.2-1-0.5-1.4c-0.3-0.3-0.8-0.5-1.4-0.5
		c-0.5,0-0.9,0.1-1.2,0.2s-0.6,0.4-0.9,0.6c-0.2,0.3-0.4,0.6-0.5,0.9c-0.1,0.4-0.2,0.8-0.2,1.2v5.3h-1.6v-9.4H126.6z"/>
	<path class="st2" d="M141.9,23.1c-0.7,0.5-1.6,0.8-2.7,0.8c-0.8,0-1.4-0.1-2-0.4s-1-0.6-1.4-1c-0.4-0.4-0.7-1-0.8-1.6
		c-0.2-0.6-0.3-1.3-0.3-2c0-0.7,0.1-1.4,0.3-2c0.2-0.6,0.5-1.1,0.9-1.6c0.4-0.4,0.9-0.8,1.4-1c0.5-0.2,1.1-0.4,1.8-0.4
		c0.8,0,1.5,0.2,2.1,0.5s1,0.8,1.3,1.3c0.3,0.5,0.6,1.1,0.7,1.8c0.1,0.6,0.2,1.2,0.2,1.8h-7.1c0,0.4,0,0.8,0.1,1.2s0.3,0.7,0.5,1
		c0.2,0.3,0.6,0.5,0.9,0.7c0.4,0.2,0.8,0.3,1.3,0.3c0.7,0,1.2-0.2,1.6-0.5s0.7-0.8,0.8-1.4h1.5C143.1,21.7,142.6,22.5,141.9,23.1z
		 M141.6,17c-0.1-0.3-0.3-0.6-0.6-0.8c-0.2-0.2-0.5-0.4-0.8-0.6c-0.3-0.1-0.7-0.2-1.1-0.2c-0.4,0-0.8,0.1-1.1,0.2
		c-0.3,0.1-0.6,0.3-0.8,0.6c-0.2,0.2-0.4,0.5-0.5,0.8s-0.2,0.7-0.2,1h5.4C141.8,17.7,141.7,17.3,141.6,17z"/>
	<path class="st2" d="M146.7,10.6v13h-1.6v-13H146.7z"/>
</g>
</svg>
