<svg xmlns="http://www.w3.org/2000/svg" xmlns:xlink="http://www.w3.org/1999/xlink" width="500" zoomAndPan="magnify" viewBox="0 0 375 374.999991" height="500" preserveAspectRatio="xMidYMid meet" version="1.2"><defs/><g id="64419cd85b"><rect x="0" width="375" y="0" height="374.999991" style="fill:#ffffff;fill-opacity:1;stroke:none;"/><rect x="0" width="375" y="0" height="374.999991" style="fill:#c1ff72;fill-opacity:1;stroke:none;"/><g style="fill:#2e2e2e;fill-opacity:1;"><g transform="translate(60.221801, 190.657566)"><path style="stroke:none" d="M 11.859375 -151.390625 L 134.40625 -151.390625 L 134.40625 -131.859375 L 83.015625 -131.859375 L 83.015625 0 L 63.25 0 L 63.25 -131.859375 L 11.859375 -131.859375 Z M 11.859375 -151.390625 "/></g></g><g style="fill:#2e2e2e;fill-opacity:1;"><g transform="translate(159.985539, 190.657566)"><path style="stroke:none" d="M 39.765625 -66.046875 L 39.765625 0 L 20 0 L 20 -151.390625 L 39.765625 -151.390625 L 39.765625 -85.578125 L 113.71875 -85.578125 L 113.71875 -151.390625 L 133.25 -151.390625 L 133.25 0 L 113.953125 0 L 113.71875 -66.046875 Z M 39.765625 -66.046875 "/></g></g><g style="fill:#2e2e2e;fill-opacity:1;"><g transform="translate(36.854615, 334.657557)"><path style="stroke:none" d="M 153.71875 -37.203125 C 146.738281 -25.265625 137.4375 -15.882812 125.8125 -9.0625 C 114.03125 -2.09375 101.238281 1.390625 87.4375 1.390625 C 73.488281 1.390625 60.695312 -2.09375 49.0625 -9.0625 C 37.28125 -15.882812 27.976562 -25.265625 21.15625 -37.203125 C 14.34375 -48.984375 10.9375 -61.851562 10.9375 -75.8125 C 10.9375 -89.601562 14.34375 -102.46875 21.15625 -114.40625 C 28.132812 -126.195312 37.515625 -135.578125 49.296875 -142.546875 C 60.921875 -149.367188 73.632812 -152.78125 87.4375 -152.78125 C 101.082031 -152.78125 113.875 -149.367188 125.8125 -142.546875 C 137.59375 -135.578125 146.894531 -126.195312 153.71875 -114.40625 C 160.539062 -102.46875 163.953125 -89.601562 163.953125 -75.8125 C 163.953125 -62.007812 160.539062 -49.140625 153.71875 -37.203125 Z M 136.96875 -104.640625 C 131.851562 -113.484375 124.878906 -120.539062 116.046875 -125.8125 C 107.203125 -130.925781 97.664062 -133.484375 87.4375 -133.484375 C 77.050781 -133.484375 67.515625 -130.925781 58.828125 -125.8125 C 49.992188 -120.539062 43.019531 -113.484375 37.90625 -104.640625 C 32.789062 -95.804688 30.234375 -86.195312 30.234375 -75.8125 C 30.234375 -65.269531 32.789062 -55.578125 37.90625 -46.734375 C 43.019531 -37.898438 49.992188 -30.925781 58.828125 -25.8125 C 67.671875 -20.539062 77.207031 -17.90625 87.4375 -17.90625 C 97.976562 -17.90625 107.585938 -20.539062 116.265625 -25.8125 C 125.109375 -30.925781 132.085938 -37.898438 137.203125 -46.734375 C 142.160156 -55.578125 144.640625 -65.269531 144.640625 -75.8125 C 144.640625 -86.195312 142.082031 -95.804688 136.96875 -104.640625 Z M 136.96875 -104.640625 "/></g></g><g style="fill:#2e2e2e;fill-opacity:1;"><g transform="translate(165.222229, 334.657557)"><path style="stroke:none" d="M 126.5 0 L 102.09375 0 L 44.65625 -81.15625 L 66.515625 -81.15625 C 72.085938 -81.15625 77.046875 -81.546875 81.390625 -82.328125 C 85.578125 -82.941406 88.832031 -83.710938 91.15625 -84.640625 C 95.96875 -86.816406 99.765625 -90 102.546875 -94.1875 C 105.335938 -98.21875 106.734375 -102.398438 106.734375 -106.734375 C 106.734375 -111.078125 105.414062 -115.1875 102.78125 -119.0625 C 100.144531 -122.78125 96.347656 -125.878906 91.390625 -128.359375 C 86.429688 -130.691406 80.695312 -131.859375 74.1875 -131.859375 L 39.0625 -131.859375 L 39.53125 0 L 19.765625 0 L 19.765625 -151.390625 L 74.1875 -151.390625 C 81.46875 -151.390625 88.285156 -150.226562 94.640625 -147.90625 C 101.003906 -145.570312 106.585938 -142.238281 111.390625 -137.90625 C 116.035156 -133.71875 119.675781 -128.910156 122.3125 -123.484375 C 124.800781 -118.054688 126.046875 -112.472656 126.046875 -106.734375 C 126.046875 -97.585938 123.253906 -89.375 117.671875 -82.09375 C 113.015625 -75.882812 106.734375 -70.84375 98.828125 -66.96875 C 92.785156 -64.800781 87.4375 -63.71875 82.78125 -63.71875 Z M 126.5 0 "/></g></g><g style="fill:#2e2e2e;fill-opacity:1;"><g transform="translate(259.637263, 334.657557)"><path style="stroke:none" d=""/></g></g><g style="fill:#2e2e2e;fill-opacity:1;"><g transform="translate(285.681977, 334.657557)"><path style="stroke:none" d="M 25.34375 0 C 22.707031 0 20.460938 -1.003906 18.609375 -3.015625 C 16.742188 -4.878906 15.8125 -7.128906 15.8125 -9.765625 C 15.8125 -12.398438 16.820312 -14.648438 18.84375 -16.515625 C 20.695312 -18.367188 22.863281 -19.296875 25.34375 -19.296875 C 27.976562 -19.296875 30.304688 -18.367188 32.328125 -16.515625 C 34.179688 -14.492188 35.109375 -12.242188 35.109375 -9.765625 C 35.109375 -7.128906 34.179688 -4.878906 32.328125 -3.015625 C 30.304688 -1.003906 27.976562 0 25.34375 0 Z M 25.34375 0 "/></g></g></g></svg>